<mxfile host="app.diagrams.net" modified="2024-09-25T20:01:13.299Z" agent="Mozilla/5.0 (Macintosh; Intel Mac OS X 10_15_7) AppleWebKit/537.36 (KHTML, like Gecko) Chrome/129.0.0.0 Safari/537.36" version="24.3.1" etag="WZjrAL3o1p6PsoGoTGUh" type="github">
  <diagram name="Page-1" id="_6mV9aUkuDvM-RIVulyK">
    <mxGraphModel>
      <root>
        <mxCell id="0" />
        <mxCell id="1" parent="0" />
      </root>
    </mxGraphModel>
  </diagram>
</mxfile>
